<svg xmlns="http://www.w3.org/2000/svg" viewBox="0 0 1400 1400"><defs><style>.cls-1{isolation:isolate;}.cls-2,.cls-7{fill:#231f20;mix-blend-mode:darken;}.cls-2{opacity:0.11;}.cls-3,.cls-6{fill:#fff;}.cls-4{fill:#808285;}.cls-5{fill:#414042;}.cls-6{opacity:0.12;mix-blend-mode:lighten;}.cls-7{opacity:0.32;}</style></defs><g class="cls-1"><g id="clock"><circle class="cls-2" cx="635.85" cy="671.46" r="577.22"/><circle class="cls-3" cx="700" cy="700" r="577.22"/><circle class="cls-4" cx="700" cy="700" r="503.67"/><circle class="cls-5" cx="700" cy="700" r="487.67"/><circle class="cls-6" cx="700" cy="700" r="487.67"/><rect class="cls-3" x="691.33" y="232" width="17.33" height="42.67"/><rect class="cls-3" x="691.33" y="1125.33" width="17.33" height="42.67"/><rect class="cls-3" x="468" y="291.84" width="17.33" height="42.67" transform="translate(-92.73 280.29) rotate(-30)"/><rect class="cls-3" x="914.67" y="1065.49" width="17.33" height="42.67" transform="translate(-419.71 607.27) rotate(-30)"/><rect class="cls-3" x="304.51" y="455.33" width="17.33" height="42.67" transform="translate(-256.22 509.55) rotate(-60)"/><rect class="cls-3" x="1078.16" y="902" width="17.33" height="42.67" transform="translate(-256.22 1402.88) rotate(-60)"/><rect class="cls-3" x="244.67" y="678.67" width="17.33" height="42.67" transform="translate(-446.67 953.33) rotate(-90)"/><rect class="cls-3" x="1138" y="678.67" width="17.33" height="42.67" transform="translate(446.67 1846.67) rotate(-90)"/><rect class="cls-3" x="304.51" y="902" width="17.33" height="42.67" transform="translate(-329.87 1656.22) rotate(-120)"/><rect class="cls-3" x="1078.16" y="455.33" width="17.33" height="42.67" transform="translate(1217.43 1656.22) rotate(-120)"/><rect class="cls-3" x="468" y="1065.49" width="17.33" height="42.67" transform="translate(346.06 2266.38) rotate(-150)"/><rect class="cls-3" x="914.67" y="291.84" width="17.33" height="42.67" transform="translate(1566.38 1046.06) rotate(-150)"/><rect class="cls-3" x="651.42" y="243" width="3.78" height="25.63" transform="translate(-23.16 69.69) rotate(-6)"/><rect class="cls-3" x="744.8" y="1131.41" width="3.78" height="25.63" transform="translate(-115.51 84.32) rotate(-6)"/><rect class="cls-3" x="605.25" y="250.32" width="3.78" height="25.63" transform="translate(-41.44 131.98) rotate(-12)"/><rect class="cls-3" x="790.97" y="1124.09" width="3.78" height="25.63" transform="matrix(0.98, -0.21, 0.21, 0.98, -219.05, 189.69)"/><rect class="cls-3" x="560.09" y="262.42" width="3.78" height="25.63" transform="matrix(0.95, -0.31, 0.31, 0.95, -57.55, 187.13)"/><rect class="cls-3" x="836.13" y="1111.99" width="3.78" height="25.63" transform="matrix(0.95, -0.31, 0.31, 0.95, -306.57, 314.01)"/><rect class="cls-3" x="516.44" y="279.17" width="3.78" height="25.63" transform="translate(-73.95 236.07) rotate(-24)"/><rect class="cls-3" x="879.78" y="1095.24" width="3.78" height="25.63" transform="translate(-374.46 454.4) rotate(-24)"/><rect class="cls-3" x="435.58" y="325.86" width="3.78" height="25.63" transform="translate(-115.52 321.82) rotate(-36)"/><rect class="cls-3" x="960.64" y="1048.55" width="3.78" height="25.63" transform="translate(-440.03 768.47) rotate(-36)"/><rect class="cls-3" x="399.25" y="355.28" width="3.78" height="25.63" transform="translate(-143.27 362.96) rotate(-42)"/><rect class="cls-3" x="996.98" y="1019.13" width="3.78" height="25.63" transform="translate(-433.94 933.43) rotate(-42)"/><rect class="cls-3" x="366.19" y="388.34" width="3.78" height="25.63" transform="translate(-176.33 406.26) rotate(-48)"/><rect class="cls-3" x="1030.04" y="986.07" width="3.78" height="25.63" transform="translate(-400.88 1097.37) rotate(-48)"/><rect class="cls-3" x="336.77" y="424.67" width="3.78" height="25.63" transform="translate(-214.33 454.31) rotate(-54)"/><rect class="cls-3" x="1059.46" y="949.74" width="3.78" height="25.63" transform="translate(-341.22 1255.42) rotate(-54)"/><rect class="cls-3" x="290.08" y="505.54" width="3.78" height="25.63" transform="translate(-300.32 574.24) rotate(-66)"/><rect class="cls-3" x="1106.14" y="868.87" width="3.78" height="25.63" transform="translate(-148.11 1535.31) rotate(-66)"/><rect class="cls-3" x="273.32" y="549.18" width="3.78" height="25.63" transform="translate(-344.32 650.07) rotate(-72)"/><rect class="cls-3" x="1122.9" y="825.23" width="3.78" height="25.63" transform="translate(-19.81 1648.81) rotate(-72)"/><rect class="cls-3" x="261.22" y="594.34" width="3.78" height="25.63" transform="translate(-385.48 738.28) rotate(-78)"/><rect class="cls-3" x="1135" y="780.07" width="3.78" height="25.63" transform="translate(124.96 1740.08) rotate(-78)"/><rect class="cls-3" x="253.91" y="640.52" width="3.78" height="25.63" transform="translate(-420.69 839.44) rotate(-84)"/><rect class="cls-3" x="1142.31" y="733.89" width="3.78" height="25.63" transform="translate(281.98 1806.59) rotate(-84)"/><rect class="cls-3" x="253.91" y="733.89" width="3.78" height="25.63" transform="translate(-460.08 1079.16) rotate(-96)"/><rect class="cls-3" x="1142.31" y="640.52" width="3.78" height="25.63" transform="translate(614.05 1859.56) rotate(-96)"/><rect class="cls-3" x="261.22" y="780.07" width="3.78" height="25.63" transform="translate(-457.74 1215.09) rotate(-102)"/><rect class="cls-3" x="1135" y="594.34" width="3.78" height="25.63" transform="translate(779.37 1845.43) rotate(-102)"/><rect class="cls-3" x="273.32" y="825.23" width="3.78" height="25.63" transform="translate(-436.77 1358.75) rotate(-108)"/><rect class="cls-3" x="1122.9" y="549.18" width="3.78" height="25.63" transform="translate(937.88 1805.4) rotate(-108)"/><rect class="cls-3" x="290.08" y="868.87" width="3.78" height="25.63" transform="translate(-394.74 1507.03) rotate(-114)"/><rect class="cls-3" x="1106.14" y="505.54" width="3.78" height="25.63" transform="translate(1085.17 1741.42) rotate(-114)"/><rect class="cls-3" x="336.77" y="949.74" width="3.78" height="25.63" transform="translate(-241.01 1802.3) rotate(-126)"/><rect class="cls-3" x="1059.46" y="424.67" width="3.78" height="25.63" transform="translate(1331.26 1553.28) rotate(-126)"/><rect class="cls-3" x="366.19" y="986.07" width="3.78" height="25.63" transform="translate(-127.95 1940.8) rotate(-132)"/><rect class="cls-3" x="1030.04" y="388.34" width="3.78" height="25.63" transform="translate(1424.3 1436.45) rotate(-132)"/><rect class="cls-3" x="399.25" y="1019.13" width="3.78" height="25.63" transform="translate(8.73 2067.24) rotate(-138)"/><rect class="cls-3" x="996.98" y="355.28" width="3.78" height="25.63" transform="translate(1494.86 1310.01) rotate(-138)"/><rect class="cls-3" x="435.58" y="1048.55" width="3.78" height="25.63" transform="translate(167.53 2177.16) rotate(-144)"/><rect class="cls-3" x="960.64" y="325.86" width="3.78" height="25.63" transform="translate(1542.17 1178.43) rotate(-144)"/><rect class="cls-3" x="516.44" y="1095.24" width="3.78" height="25.63" transform="translate(541.17 2331.13) rotate(-156)"/><rect class="cls-3" x="879.78" y="279.17" width="3.78" height="25.63" transform="translate(1568.35 917.33) rotate(-156)"/><rect class="cls-3" x="560.09" y="1111.99" width="3.78" height="25.63" transform="matrix(-0.95, -0.31, 0.31, -0.95, 748.87, 2368.22)"/><rect class="cls-3" x="836.13" y="262.42" width="3.78" height="25.63" transform="translate(1549.98 795.95) rotate(-162)"/><rect class="cls-3" x="605.25" y="1124.09" width="3.78" height="25.63" transform="translate(964.63 2375.2) rotate(-168)"/><rect class="cls-3" x="790.97" y="250.32" width="3.78" height="25.63" transform="translate(1513.69 685.36) rotate(-168)"/><rect class="cls-3" x="651.42" y="1131.41" width="3.78" height="25.63" transform="translate(1183.44 2350.46) rotate(-174)"/><rect class="cls-3" x="744.8" y="243" width="3.78" height="25.63" transform="translate(1462.54 588.28) rotate(-174)"/><path class="cls-3" d="M896.27,398.05h-7V370q0-5,.24-8c-.46.48-1,1-1.68,1.58s-2.89,2.4-6.68,5.47l-3.51-4.43,12.79-10.05h5.83Z"/><path class="cls-3" d="M1038.5,535.17H1009v-5.3l11.21-11.27a93,93,0,0,0,6.59-7.21,17.46,17.46,0,0,0,2.37-4,10.9,10.9,0,0,0,.74-4,6.11,6.11,0,0,0-1.77-4.64,6.78,6.78,0,0,0-4.89-1.7,13.08,13.08,0,0,0-4.83.92,22.88,22.88,0,0,0-5.4,3.33l-3.78-4.61a24.37,24.37,0,0,1,7.05-4.34,20.69,20.69,0,0,1,7.28-1.28q6.08,0,9.73,3.17a10.69,10.69,0,0,1,3.66,8.52,15,15,0,0,1-1.06,5.59,22.34,22.34,0,0,1-3.24,5.46,74.52,74.52,0,0,1-7.27,7.6l-7.55,7.31v.3h20.63Z"/><path class="cls-3" d="M1087.18,688.27a10,10,0,0,1-2.41,6.88,12.09,12.09,0,0,1-6.78,3.71v.23c3.49.44,6.11,1.52,7.85,3.26a9.29,9.29,0,0,1,2.62,6.91q0,6.29-4.43,9.68t-12.61,3.41a28.31,28.31,0,0,1-12.19-2.35v-6.22a27.44,27.44,0,0,0,5.86,2.12,25.67,25.67,0,0,0,5.94.74c3.37,0,5.89-.63,7.56-1.87a6.8,6.8,0,0,0,2.5-5.8,5.54,5.54,0,0,0-2.77-5.12c-1.84-1.09-4.74-1.63-8.68-1.63h-3.78v-5.68h3.84q10.4,0,10.4-7.2a5.3,5.3,0,0,0-1.81-4.31,8.17,8.17,0,0,0-5.35-1.52,16,16,0,0,0-4.76.7,22.13,22.13,0,0,0-5.41,2.72l-3.42-4.88a22.79,22.79,0,0,1,13.88-4.4q6.58,0,10.26,2.83A9.26,9.26,0,0,1,1087.18,688.27Z"/><path class="cls-3" d="M1040,899.2h-5.86v9.48h-6.81V899.2H1007.5v-5.39l19.87-28.72h6.81V893.4H1040Zm-12.67-5.8V882.48q0-5.82.29-9.54h-.23a34,34,0,0,1-2.62,4.75L1014,893.4Z"/><path class="cls-3" d="M886.81,1018q6.57,0,10.41,3.48a12.18,12.18,0,0,1,3.84,9.49q0,7-4.36,10.87c-2.91,2.61-7,3.91-12.39,3.91q-7.29,0-11.45-2.35v-6.33a21.28,21.28,0,0,0,5.53,2.11,25.53,25.53,0,0,0,5.8.74c3.16,0,5.55-.7,7.2-2.11a7.68,7.68,0,0,0,2.47-6.19q0-7.78-9.93-7.79a25.72,25.72,0,0,0-3.45.29c-1.37.18-2.57.4-3.6.64l-3.12-1.85,1.66-21.23H898v6.21H881.58l-1,10.77,2.54-.42A23.7,23.7,0,0,1,886.81,1018Z"/><path class="cls-3" d="M685.31,1077q0-25.52,20.79-25.52a25.58,25.58,0,0,1,5.53.51v5.82a19.15,19.15,0,0,0-5.24-.65q-7,0-10.49,3.75t-3.81,12h.36a9.59,9.59,0,0,1,3.92-3.73,12.7,12.7,0,0,1,6-1.32q5.91,0,9.22,3.62t3.3,9.85q0,6.84-3.82,10.81t-10.43,4a14.48,14.48,0,0,1-8.11-2.25,14.27,14.27,0,0,1-5.31-6.54A25.91,25.91,0,0,1,685.31,1077Zm15.17,13.35A6.83,6.83,0,0,0,706,1088q2-2.32,2-6.63a8.78,8.78,0,0,0-1.83-5.89,6.82,6.82,0,0,0-5.49-2.14,9,9,0,0,0-4.16,1,7.56,7.56,0,0,0-3,2.64,6.17,6.17,0,0,0-1.1,3.44,11,11,0,0,0,2.27,7.06A7.12,7.12,0,0,0,700.48,1090.32Z"/><path class="cls-3" d="M503.57,1045.4l17.19-37.26h-22.6V1002h30.06v4.88l-17.1,38.54Z"/><path class="cls-3" d="M376.36,864.57q6.19,0,9.79,2.84a9.17,9.17,0,0,1,3.6,7.59q0,6.71-8,10.65A20.77,20.77,0,0,1,389,891a10.16,10.16,0,0,1,2.16,6.31,10.57,10.57,0,0,1-4,8.62q-4,3.24-10.71,3.24-7.07,0-11-3a10.25,10.25,0,0,1-3.9-8.59,11.07,11.07,0,0,1,2-6.53,17.09,17.09,0,0,1,6.68-5.16,16.75,16.75,0,0,1-5.68-5,10.77,10.77,0,0,1-1.7-6,9,9,0,0,1,3.72-7.53A15.61,15.61,0,0,1,376.36,864.57Zm-8.05,32.77a5.75,5.75,0,0,0,2.17,4.8,9.24,9.24,0,0,0,5.88,1.71,9.08,9.08,0,0,0,6-1.77,5.94,5.94,0,0,0,2.12-4.8,6.14,6.14,0,0,0-2-4.4,18.48,18.48,0,0,0-5.95-3.69l-.86-.39a15.37,15.37,0,0,0-5.65,3.79A7.2,7.2,0,0,0,368.31,897.34Zm8-27.39a7.37,7.37,0,0,0-4.79,1.47,4.89,4.89,0,0,0-1.82,4,5.76,5.76,0,0,0,.66,2.77,7.12,7.12,0,0,0,1.9,2.21,22.88,22.88,0,0,0,4.22,2.4,14.27,14.27,0,0,0,5-3.32,6.09,6.09,0,0,0,1.47-4.06,4.87,4.87,0,0,0-1.83-4A7.53,7.53,0,0,0,376.31,870Z"/><path class="cls-3" d="M341.07,696.8q0,12.86-5.17,19.18t-15.59,6.34a23.63,23.63,0,0,1-5.68-.48V716a19.49,19.49,0,0,0,5.33.75q7.07,0,10.55-3.81T334.32,701H334a10.5,10.5,0,0,1-4.24,3.86,13.19,13.19,0,0,1-5.81,1.19q-5.78,0-9.07-3.6t-3.3-9.87q0-6.81,3.82-10.84t10.42-4a13.9,13.9,0,0,1,13.42,8.82A25.65,25.65,0,0,1,341.07,696.8ZM325.9,683.48a6.78,6.78,0,0,0-5.56,2.36,10.25,10.25,0,0,0-1.93,6.65,8.74,8.74,0,0,0,1.8,5.84,6.75,6.75,0,0,0,5.46,2.13,8.67,8.67,0,0,0,5.94-2.11,6.38,6.38,0,0,0,2.41-4.94,12.12,12.12,0,0,0-1-4.95,9,9,0,0,0-2.87-3.64A7,7,0,0,0,325.9,683.48Z"/><path class="cls-3" d="M363.83,534.9h-7V506.83c0-3.36.08-6,.24-8-.46.47-1,1-1.68,1.57s-2.89,2.4-6.68,5.47l-3.51-4.43L358,491.42h5.83Z"/><path class="cls-3" d="M407.55,513.16q0,11.33-3.65,16.83t-11.13,5.5q-7.26,0-11-5.68T378,513.16q0-11.5,3.64-17t11.11-5.45q7.28,0,11,5.71T407.55,513.16Zm-22.46,0q0,8.9,1.83,12.7a6.4,6.4,0,0,0,11.72-.06q1.86-3.87,1.86-12.64t-1.86-12.65a6.37,6.37,0,0,0-11.72-.08Q385.09,504.27,385.09,513.16Z"/><path class="cls-3" d="M505.12,398.05h-7V370q0-5,.23-8a22.66,22.66,0,0,1-1.68,1.58q-1,.85-6.67,5.47l-3.51-4.43,12.79-10.05h5.83Z"/><path class="cls-3" d="M539.88,398.05h-7V370q0-5,.24-8c-.46.48-1,1-1.68,1.58s-2.89,2.4-6.68,5.47l-3.51-4.43,12.79-10.05h5.83Z"/><path class="cls-3" d="M687.52,348.28h-7V320.21q0-5,.23-8a22.73,22.73,0,0,1-1.68,1.57q-1,.87-6.67,5.48l-3.51-4.44L681.7,304.8h5.82Z"/><path class="cls-3" d="M731.24,348.28H701.77V343L713,331.72a97.27,97.27,0,0,0,6.59-7.21,17.24,17.24,0,0,0,2.36-4,10.72,10.72,0,0,0,.75-4,6.13,6.13,0,0,0-1.77-4.64,6.79,6.79,0,0,0-4.9-1.69,13,13,0,0,0-4.83.92,22.42,22.42,0,0,0-5.4,3.33L702,309.8a24.37,24.37,0,0,1,7-4.34,20.61,20.61,0,0,1,7.28-1.28q6.07,0,9.73,3.17a10.71,10.71,0,0,1,3.65,8.52,15,15,0,0,1-1.05,5.59,23.15,23.15,0,0,1-3.24,5.45,73.48,73.48,0,0,1-7.27,7.6l-7.56,7.32v.3h20.64Z"/><circle class="cls-3" cx="700" cy="700" r="28.54"/><path class="cls-7" d="M1026,336.42a574.5,574.5,0,0,1,90.64,310.65c0,244.51-152,453.51-366.72,537.63,246.1-24.79,438.21-232.55,438.21-485.19C1188.16,555.3,1125.55,425.71,1026,336.42Z"/><circle class="cls-5" cx="700" cy="700" r="16.66"/></g></g></svg>